<svg width="50" height="50" viewBox="0 0 35 37" fill="none" xmlns="http://www.w3.org/2000/svg">
<path d="M17 34C26.3888 34 34 26.3888 34 17C34 7.61116 26.3888 0 17 0C7.61116 0 0 7.61116 0 17C0 26.3888 7.61116 34 17 34Z" fill="#0F47AF"/>
<path d="M4.04761 12.669H13.9424L16.1795 5.76854L16.7763 7.60889L13.525 17.6368L12.5596 16.9338L13.5736 13.8064H5.60968L4.04761 12.669ZM8.99496 27.9286L12.0526 18.4977L6.19548 14.2329H8.12629L16.6381 20.4305L15.6725 21.1334L13.0181 19.2007L10.557 26.7912L8.99496 27.9286ZM25.0051 27.9286L17.0001 22.0999L11.1428 26.3647L11.7395 24.5244L20.2512 18.3268L20.62 19.4642L17.9654 21.397L24.4083 26.0883L25.0051 27.9286ZM29.9524 12.669L21.9474 18.4977L24.1845 25.3983L22.6224 24.261L19.3714 14.2329H20.5646L21.5785 17.3603L28.0214 12.669H29.9524ZM17.0001 3.2381L20.0575 12.669H27.2974L25.7355 13.8064H15.2144L15.583 12.669H18.8643L16.4034 5.0784L17.0001 3.2381Z" fill="#FCDD09"/>
<path fill-rule="evenodd" clip-rule="evenodd" d="M9.27684 5.66666L13.5838 11.7049L13.1278 12.0423L8.82085 6.00413L9.27684 5.66666ZM25.1792 6.00413L20.8723 12.0423L20.4163 11.7049L24.7232 5.66667L25.1792 6.00413ZM4.04761 20.9679L11.0163 18.6613L11.1905 19.2074L4.22179 21.5139L4.04761 20.9679ZM29.7782 21.5139L22.8096 19.2074L22.9837 18.6613L29.9524 20.9679L29.7782 21.5139ZM16.7183 30.7619V23.2983H17.2819V30.7619H16.7183Z" fill="#FCDD09"/>
</svg>
